{
  "asset": {
    "version": "2.0",
    "generator": "THREE.GLTFExporter"
  },
  "scenes": [
    {
      "nodes": [
        0
      ]
    }
  ],
  "scene": 0,
  "nodes": [
    {
      "children": [
        99
      ],
      "matrix": [
        0.01,
        0,
        0,
        0,
        0,
        0.01,
        0,
        0,
        0,
        0,
        0.01,
        0,
        0,
        0,
        0,
        1
      ]
    },
    {
      "matrix": [
        1,
        0,
        -5.551115123125783e-17,
        0,
        0,
        1,
        0,
        0,
        5.551115123125783e-17,
        0,
        1,
        0,
        0,
        0,
        0,
        1
      ],
      "name": "Ellipse",
      "mesh": 1
    },
    {
      "matrix": [
        2.220446049250313e-16,
        0,
        1,
        0,
        0,
        1,
        0,
        0,
        -1,
        0,
        2.220446049250313e-16,
        0,
        0.2182397273591974,
        0.7324187500000363,
        0.9458943011960059,
        1
      ],
      "name": "Point Light",
      "extensions": {
        "KHR_lights_punctual": {
          "light": 0
        }
      }
    },
    {
      "matrix": [
        2.220446049250313e-16,
        0,
        -1,
        0,
        0,
        1,
        0,
        0,
        1,
        0,
        2.220446049250313e-16,
        0,
        152.99,
        15.56,
        -151.28,
        1
      ],
      "name": "Sphere",
      "mesh": 0,
      "children": [
        1,
        2
      ]
    },
    {
      "matrix": [
        0.9993848682953086,
        -2.4733595612423893e-17,
        -0.03506971659949441,
        0,
        -0.03506971659949437,
        1.6767905028698325e-16,
        -0.9993848682953087,
        0,
        2.1871208377741604e-17,
        1.0000000000000002,
        5.5511151231257815e-17,
        0,
        1.440514374451141e-14,
        -2.9999999999999996,
        100.17648459079173,
        1
      ],
      "name": "Rectangle",
      "mesh": 2
    },
    {
      "matrix": [
        1,
        0,
        0,
        0,
        0,
        1,
        0,
        0,
        0,
        0,
        1,
        0,
        -64.99477100121244,
        -144.05898951414287,
        -190.96,
        1
      ],
      "name": "group",
      "children": [
        4
      ]
    },
    {
      "matrix": [
        0.7193398003386512,
        0.5080409705959288,
        0.47375586945672366,
        0,
        -0.6946583704589973,
        0.5260918256996676,
        0.4905885641586452,
        0,
        0,
        -0.6819983600624985,
        0.7313537016191705,
        0,
        0,
        0,
        327,
        1
      ],
      "name": "Clone 0",
      "children": [
        5
      ]
    },
    {
      "matrix": [
        0.9993848682953086,
        -2.4733595612423893e-17,
        -0.03506971659949441,
        0,
        -0.03506971659949437,
        1.6767905028698325e-16,
        -0.9993848682953087,
        0,
        2.1871208377741604e-17,
        1.0000000000000002,
        5.5511151231257815e-17,
        0,
        1.440514374451141e-14,
        -2.9999999999999996,
        100.17648459079173,
        1
      ],
      "name": "Rectangle",
      "mesh": 3
    },
    {
      "matrix": [
        1,
        0,
        0,
        0,
        0,
        1,
        0,
        0,
        0,
        0,
        1,
        0,
        -64.99477100121244,
        -144.05898951414287,
        -190.96,
        1
      ],
      "name": "group",
      "children": [
        7
      ]
    },
    {
      "matrix": [
        0.7193398003386511,
        0.5954384403164665,
        0.35777550984135753,
        0,
        -0.6946583704589973,
        0.6165945549438778,
        0.370487385972602,
        0,
        -2.7755575615628914e-17,
        -0.5150380749100547,
        0.857167300702112,
        0,
        0,
        67.98712289740729,
        319.8542654399544,
        1
      ],
      "name": "Clone 1",
      "children": [
        8
      ]
    },
    {
      "matrix": [
        0.9993848682953086,
        -2.4733595612423893e-17,
        -0.03506971659949441,
        0,
        -0.03506971659949437,
        1.6767905028698325e-16,
        -0.9993848682953087,
        0,
        2.1871208377741604e-17,
        1.0000000000000002,
        5.5511151231257815e-17,
        0,
        1.440514374451141e-14,
        -2.9999999999999996,
        100.17648459079173,
        1
      ],
      "name": "Rectangle",
      "mesh": 4
    },
    {
      "matrix": [
        1,
        0,
        0,
        0,
        0,
        1,
        0,
        0,
        0,
        0,
        1,
        0,
        -64.99477100121244,
        -144.05898951414287,
        -190.96,
        1
      ],
      "name": "group",
      "children": [
        10
      ]
    },
    {
      "matrix": [
        0.7193398003386511,
        0.6568123929645343,
        0.22615864364855004,
        0,
        -0.6946583704589974,
        0.680149143388099,
        0.23419413122383262,
        0,
        -1.3877787807814457e-17,
        -0.3255681544571544,
        0.9455185755993176,
        0,
        0,
        133.00288228578665,
        298.72936464913056,
        1
      ],
      "name": "Clone 2",
      "children": [
        11
      ]
    },
    {
      "matrix": [
        0.9993848682953086,
        -2.4733595612423893e-17,
        -0.03506971659949441,
        0,
        -0.03506971659949437,
        1.6767905028698325e-16,
        -0.9993848682953087,
        0,
        2.1871208377741604e-17,
        1.0000000000000002,
        5.5511151231257815e-17,
        0,
        1.440514374451141e-14,
        -2.9999999999999996,
        100.17648459079173,
        1
      ],
      "name": "Rectangle",
      "mesh": 5
    },
    {
      "matrix": [
        1,
        0,
        0,
        0,
        0,
        1,
        0,
        0,
        0,
        0,
        1,
        0,
        -64.99477100121244,
        -144.05898951414287,
        -190.96,
        1
      ],
      "name": "group",
      "children": [
        13
      ]
    },
    {
      "matrix": [
        0.7193398003386512,
        0.6894804923045095,
        0.08465755949872769,
        0,
        -0.6946583704589973,
        0.7139779505485653,
        0.08766546915246129,
        0,
        0,
        -0.12186934340514746,
        0.992546151641322,
        0,
        0,
        192.20577749963869,
        264.5485571606078,
        1
      ],
      "name": "Clone 3",
      "children": [
        14
      ]
    },
    {
      "matrix": [
        0.9993848682953086,
        -2.4733595612423893e-17,
        -0.03506971659949441,
        0,
        -0.03506971659949437,
        1.6767905028698325e-16,
        -0.9993848682953087,
        0,
        2.1871208377741604e-17,
        1.0000000000000002,
        5.5511151231257815e-17,
        0,
        1.440514374451141e-14,
        -2.9999999999999996,
        100.17648459079173,
        1
      ],
      "name": "Rectangle",
      "mesh": 6
    },
    {
      "matrix": [
        1,
        0,
        0,
        0,
        0,
        1,
        0,
        0,
        0,
        0,
        1,
        0,
        -64.99477100121244,
        -144.05898951414287,
        -190.96,
        1
      ],
      "name": "group",
      "children": [
        16
      ]
    },
    {
      "matrix": [
        0.7193398003386512,
        0.6920149856363047,
        -0.06054346623323138,
        0,
        -0.6946583704589973,
        0.7166024952237391,
        -0.06269459458646685,
        0,
        3.469446951953614e-18,
        0.0871557427476576,
        0.9961946980917455,
        0,
        0,
        243.0083579311079,
        218.80570827934662,
        1
      ],
      "name": "Clone 4",
      "children": [
        17
      ]
    },
    {
      "matrix": [
        0.9993848682953086,
        -2.4733595612423893e-17,
        -0.03506971659949441,
        0,
        -0.03506971659949437,
        1.6767905028698325e-16,
        -0.9993848682953087,
        0,
        2.1871208377741604e-17,
        1.0000000000000002,
        5.5511151231257815e-17,
        0,
        1.440514374451141e-14,
        -2.9999999999999996,
        100.17648459079173,
        1
      ],
      "name": "Rectangle",
      "mesh": 7
    },
    {
      "matrix": [
        1,
        0,
        0,
        0,
        0,
        1,
        0,
        0,
        0,
        0,
        1,
        0,
        -64.99477100121244,
        -144.05898951414287,
        -190.96,
        1
      ],
      "name": "group",
      "children": [
        19
      ]
    },
    {
      "matrix": [
        0.7193398003386512,
        0.6643051034394707,
        -0.203098451971017,
        0,
        -0.6946583704589973,
        0.687908072217352,
        -0.21031460369992616,
        0,
        -1.3877787807814457e-17,
        0.292371704722739,
        0.9563047559630348,
        0,
        0,
        283.19030703751145,
        163.50000000000009,
        1
      ],
      "name": "Clone 5",
      "children": [
        20
      ]
    },
    {
      "matrix": [
        0.9993848682953086,
        -2.4733595612423893e-17,
        -0.03506971659949441,
        0,
        -0.03506971659949437,
        1.6767905028698325e-16,
        -0.9993848682953087,
        0,
        2.1871208377741604e-17,
        1.0000000000000002,
        5.5511151231257815e-17,
        0,
        1.440514374451141e-14,
        -2.9999999999999996,
        100.17648459079173,
        1
      ],
      "name": "Rectangle",
      "mesh": 8
    },
    {
      "matrix": [
        1,
        0,
        0,
        0,
        0,
        1,
        0,
        0,
        0,
        0,
        1,
        0,
        -64.99477100121244,
        -144.05898951414287,
        -190.96,
        1
      ],
      "name": "group",
      "children": [
        22
      ]
    },
    {
      "matrix": [
        0.7193398003386512,
        0.607561900532778,
        -0.3367770607831657,
        0,
        -0.6946583704589971,
        0.6291487655059026,
        -0.3487428554302573,
        0,
        0,
        0.4848096202463369,
        0.8746197071393959,
        0,
        0,
        310.99548082851527,
        101.04855716060781,
        1
      ],
      "name": "Clone 6",
      "children": [
        23
      ]
    },
    {
      "matrix": [
        0.9993848682953086,
        -2.4733595612423893e-17,
        -0.03506971659949441,
        0,
        -0.03506971659949437,
        1.6767905028698325e-16,
        -0.9993848682953087,
        0,
        2.1871208377741604e-17,
        1.0000000000000002,
        5.5511151231257815e-17,
        0,
        1.440514374451141e-14,
        -2.9999999999999996,
        100.17648459079173,
        1
      ],
      "name": "Rectangle",
      "mesh": 9
    },
    {
      "matrix": [
        1,
        0,
        0,
        0,
        0,
        1,
        0,
        0,
        0,
        0,
        1,
        0,
        -64.99477100121244,
        -144.05898951414287,
        -190.96,
        1
      ],
      "name": "group",
      "children": [
        25
      ]
    },
    {
      "matrix": [
        0.7193398003386512,
        0.524265327167345,
        -0.4557368960034575,
        0,
        -0.6946583704589973,
        0.5428926387511164,
        -0.47192937092440057,
        0,
        0,
        0.6560590289905068,
        0.7547095802227723,
        0,
        0,
        325.2086597854254,
        34.180807488522774,
        1
      ],
      "name": "Clone 7",
      "children": [
        26
      ]
    },
    {
      "matrix": [
        0.9993848682953086,
        -2.4733595612423893e-17,
        -0.03506971659949441,
        0,
        -0.03506971659949437,
        1.6767905028698325e-16,
        -0.9993848682953087,
        0,
        2.1871208377741604e-17,
        1.0000000000000002,
        5.5511151231257815e-17,
        0,
        1.440514374451141e-14,
        -2.9999999999999996,
        100.17648459079173,
        1
      ],
      "name": "Rectangle",
      "mesh": 10
    },
    {
      "matrix": [
        1,
        0,
        0,
        0,
        0,
        1,
        0,
        0,
        0,
        0,
        1,
        0,
        -64.99477100121244,
        -144.05898951414287,
        -190.96,
        1
      ],
      "name": "group",
      "children": [
        28
      ]
    },
    {
      "matrix": [
        0.7193398003386511,
        0.41805584330054435,
        -0.5547788420001436,
        0,
        -0.6946583704589973,
        0.43290949859499384,
        -0.5744903083407775,
        0,
        -5.551115123125783e-17,
        0.7986355100472942,
        0.6018150231520465,
        0,
        0,
        325.2086597854254,
        -34.18080748852268,
        1
      ],
      "name": "Clone 8",
      "children": [
        29
      ]
    },
    {
      "matrix": [
        0.9993848682953086,
        -2.4733595612423893e-17,
        -0.03506971659949441,
        0,
        -0.03506971659949437,
        1.6767905028698325e-16,
        -0.9993848682953087,
        0,
        2.1871208377741604e-17,
        1.0000000000000002,
        5.5511151231257815e-17,
        0,
        1.440514374451141e-14,
        -2.9999999999999996,
        100.17648459079173,
        1
      ],
      "name": "Rectangle",
      "mesh": 11
    },
    {
      "matrix": [
        1,
        0,
        0,
        0,
        0,
        1,
        0,
        0,
        0,
        0,
        1,
        0,
        -64.99477100121244,
        -144.05898951414287,
        -190.96,
        1
      ],
      "name": "group",
      "children": [
        31
      ]
    },
    {
      "matrix": [
        0.7193398003386512,
        0.29357531302700834,
        -0.6295742904771792,
        0,
        -0.6946583704589973,
        0.3040061360200226,
        -0.6519432625723086,
        0,
        0,
        0.9063077870366499,
        0.4226182617406995,
        0,
        0,
        310.99548082851527,
        -101.04855716060781,
        1
      ],
      "name": "Clone 9",
      "children": [
        32
      ]
    },
    {
      "matrix": [
        0.9993848682953086,
        -2.4733595612423893e-17,
        -0.03506971659949441,
        0,
        -0.03506971659949437,
        1.6767905028698325e-16,
        -0.9993848682953087,
        0,
        2.1871208377741604e-17,
        1.0000000000000002,
        5.5511151231257815e-17,
        0,
        1.440514374451141e-14,
        -2.9999999999999996,
        100.17648459079173,
        1
      ],
      "name": "Rectangle",
      "mesh": 12
    },
    {
      "matrix": [
        1,
        0,
        0,
        0,
        0,
        1,
        0,
        0,
        0,
        0,
        1,
        0,
        -64.99477100121244,
        -144.05898951414287,
        -190.96,
        1
      ],
      "name": "group",
      "children": [
        34
      ]
    },
    {
      "matrix": [
        0.7193398003386512,
        0.15626413284354307,
        -0.676854321427739,
        0,
        -0.6946583704589973,
        0.16181624651768534,
        -0.7009031678585698,
        0,
        0,
        0.9743700647852351,
        0.22495105434386564,
        0,
        0,
        283.1903070375115,
        -163.49999999999991,
        1
      ],
      "name": "Clone 10",
      "children": [
        35
      ]
    },
    {
      "matrix": [
        0.9993848682953086,
        -2.4733595612423893e-17,
        -0.03506971659949441,
        0,
        -0.03506971659949437,
        1.6767905028698325e-16,
        -0.9993848682953087,
        0,
        2.1871208377741604e-17,
        1.0000000000000002,
        5.5511151231257815e-17,
        0,
        1.440514374451141e-14,
        -2.9999999999999996,
        100.17648459079173,
        1
      ],
      "name": "Rectangle",
      "mesh": 13
    },
    {
      "matrix": [
        1,
        0,
        0,
        0,
        0,
        1,
        0,
        0,
        0,
        0,
        1,
        0,
        -64.99477100121244,
        -144.05898951414287,
        -190.96,
        1
      ],
      "name": "group",
      "children": [
        37
      ]
    },
    {
      "matrix": [
        0.7193398003386512,
        0.012123460216311055,
        -0.694552570624523,
        0,
        -0.6946583704589973,
        0.012554210562023993,
        -0.7192302414028591,
        0,
        -5.551115123125783e-17,
        0.9998476951563913,
        0.017452406437282852,
        0,
        0,
        243.00835793110798,
        -218.80570827934656,
        1
      ],
      "name": "Clone 11",
      "children": [
        38
      ]
    },
    {
      "matrix": [
        0.9993848682953086,
        -2.4733595612423893e-17,
        -0.03506971659949441,
        0,
        -0.03506971659949437,
        1.6767905028698325e-16,
        -0.9993848682953087,
        0,
        2.1871208377741604e-17,
        1.0000000000000002,
        5.5511151231257815e-17,
        0,
        1.440514374451141e-14,
        -2.9999999999999996,
        100.17648459079173,
        1
      ],
      "name": "Rectangle",
      "mesh": 14
    },
    {
      "matrix": [
        1,
        0,
        0,
        0,
        0,
        1,
        0,
        0,
        0,
        0,
        1,
        0,
        -64.99477100121244,
        -144.05898951414287,
        -190.96,
        1
      ],
      "name": "group",
      "children": [
        40
      ]
    },
    {
      "matrix": [
        0.7193398003386511,
        -0.132547065797189,
        -0.6818955396520094,
        0,
        -0.6946583704589973,
        -0.13725650463698247,
        -0.706123502148235,
        0,
        0,
        0.981627183447664,
        -0.19080899537654505,
        0,
        0,
        192.2057774996387,
        -264.5485571606078,
        1
      ],
      "name": "Clone 12",
      "children": [
        41
      ]
    },
    {
      "matrix": [
        0.9993848682953086,
        -2.4733595612423893e-17,
        -0.03506971659949441,
        0,
        -0.03506971659949437,
        1.6767905028698325e-16,
        -0.9993848682953087,
        0,
        2.1871208377741604e-17,
        1.0000000000000002,
        5.5511151231257815e-17,
        0,
        1.440514374451141e-14,
        -2.9999999999999996,
        100.17648459079173,
        1
      ],
      "name": "Rectangle",
      "mesh": 15
    },
    {
      "matrix": [
        1,
        0,
        0,
        0,
        0,
        1,
        0,
        0,
        0,
        0,
        1,
        0,
        -64.99477100121244,
        -144.05898951414287,
        -190.96,
        1
      ],
      "name": "group",
      "children": [
        43
      ]
    },
    {
      "matrix": [
        0.7193398003386511,
        -0.27142464900396357,
        -0.6394364014988705,
        0,
        -0.6946583704589973,
        -0.28106845195356955,
        -0.662155777493238,
        0,
        0,
        0.9205048534524406,
        -0.39073112848927316,
        0,
        0,
        133.00288228578674,
        -298.72936464913045,
        1
      ],
      "name": "Clone 13",
      "children": [
        44
      ]
    },
    {
      "matrix": [
        0.9993848682953086,
        -2.4733595612423893e-17,
        -0.03506971659949441,
        0,
        -0.03506971659949437,
        1.6767905028698325e-16,
        -0.9993848682953087,
        0,
        2.1871208377741604e-17,
        1.0000000000000002,
        5.5511151231257815e-17,
        0,
        1.440514374451141e-14,
        -2.9999999999999996,
        100.17648459079173,
        1
      ],
      "name": "Rectangle",
      "mesh": 16
    },
    {
      "matrix": [
        1,
        0,
        0,
        0,
        0,
        1,
        0,
        0,
        0,
        0,
        1,
        0,
        -64.99477100121244,
        -144.05898951414287,
        -190.96,
        1
      ],
      "name": "group",
      "children": [
        46
      ]
    },
    {
      "matrix": [
        0.7193398003386512,
        -0.3984396726092967,
        -0.5690308242439472,
        0,
        -0.6946583704589973,
        -0.41259635920371696,
        -0.5892486679858411,
        0,
        -5.551115123125783e-17,
        0.8191520442889915,
        -0.5735764363510465,
        0,
        0,
        67.98712289740743,
        -319.85426543995436,
        1
      ],
      "name": "Clone 14",
      "children": [
        47
      ]
    },
    {
      "matrix": [
        0.9993848682953086,
        -2.4733595612423893e-17,
        -0.03506971659949441,
        0,
        -0.03506971659949437,
        1.6767905028698325e-16,
        -0.9993848682953087,
        0,
        2.1871208377741604e-17,
        1.0000000000000002,
        5.5511151231257815e-17,
        0,
        1.440514374451141e-14,
        -2.9999999999999996,
        100.17648459079173,
        1
      ],
      "name": "Rectangle",
      "mesh": 17
    },
    {
      "matrix": [
        1,
        0,
        0,
        0,
        0,
        1,
        0,
        0,
        0,
        0,
        1,
        0,
        -64.99477100121244,
        -144.05898951414287,
        -190.96,
        1
      ],
      "name": "group",
      "children": [
        49
      ]
    },
    {
      "matrix": [
        0.7193398003386512,
        -0.5080409705959286,
        -0.4737558694567237,
        0,
        -0.6946583704589973,
        -0.5260918256996676,
        -0.4905885641586453,
        0,
        -5.551115123125783e-17,
        0.6819983600624986,
        -0.7313537016191705,
        0,
        0,
        4.004595033211845e-14,
        -327,
        1
      ],
      "name": "Clone 15",
      "children": [
        50
      ]
    },
    {
      "matrix": [
        0.9993848682953086,
        -2.4733595612423893e-17,
        -0.03506971659949441,
        0,
        -0.03506971659949437,
        1.6767905028698325e-16,
        -0.9993848682953087,
        0,
        2.1871208377741604e-17,
        1.0000000000000002,
        5.5511151231257815e-17,
        0,
        1.440514374451141e-14,
        -2.9999999999999996,
        100.17648459079173,
        1
      ],
      "name": "Rectangle",
      "mesh": 18
    },
    {
      "matrix": [
        1,
        0,
        0,
        0,
        0,
        1,
        0,
        0,
        0,
        0,
        1,
        0,
        -64.99477100121244,
        -144.05898951414287,
        -190.96,
        1
      ],
      "name": "group",
      "children": [
        52
      ]
    },
    {
      "matrix": [
        0.7193398003386511,
        -0.5954384403164664,
        -0.3577755098413577,
        0,
        -0.6946583704589974,
        -0.6165945549438783,
        -0.3704873859726022,
        0,
        0,
        0.5150380749100549,
        -0.8571673007021123,
        0,
        0,
        -67.98712289740722,
        -319.8542654399545,
        1
      ],
      "name": "Clone 16",
      "children": [
        53
      ]
    },
    {
      "matrix": [
        0.9993848682953086,
        -2.4733595612423893e-17,
        -0.03506971659949441,
        0,
        -0.03506971659949437,
        1.6767905028698325e-16,
        -0.9993848682953087,
        0,
        2.1871208377741604e-17,
        1.0000000000000002,
        5.5511151231257815e-17,
        0,
        1.440514374451141e-14,
        -2.9999999999999996,
        100.17648459079173,
        1
      ],
      "name": "Rectangle",
      "mesh": 19
    },
    {
      "matrix": [
        1,
        0,
        0,
        0,
        0,
        1,
        0,
        0,
        0,
        0,
        1,
        0,
        -64.99477100121244,
        -144.05898951414287,
        -190.96,
        1
      ],
      "name": "group",
      "children": [
        55
      ]
    },
    {
      "matrix": [
        0.7193398003386511,
        -0.6568123929645338,
        -0.22615864364855126,
        0,
        -0.6946583704589973,
        -0.6801491433880986,
        -0.23419413122383392,
        0,
        1.3877787807814457e-17,
        0.32556815445715626,
        -0.9455185755993172,
        0,
        0,
        -133.00288228578654,
        -298.72936464913056,
        1
      ],
      "name": "Clone 17",
      "children": [
        56
      ]
    },
    {
      "matrix": [
        0.9993848682953086,
        -2.4733595612423893e-17,
        -0.03506971659949441,
        0,
        -0.03506971659949437,
        1.6767905028698325e-16,
        -0.9993848682953087,
        0,
        2.1871208377741604e-17,
        1.0000000000000002,
        5.5511151231257815e-17,
        0,
        1.440514374451141e-14,
        -2.9999999999999996,
        100.17648459079173,
        1
      ],
      "name": "Rectangle",
      "mesh": 20
    },
    {
      "matrix": [
        1,
        0,
        0,
        0,
        0,
        1,
        0,
        0,
        0,
        0,
        1,
        0,
        -64.99477100121244,
        -144.05898951414287,
        -190.96,
        1
      ],
      "name": "group",
      "children": [
        58
      ]
    },
    {
      "matrix": [
        0.7193398003386512,
        -0.6894804923045095,
        -0.08465755949872777,
        0,
        -0.6946583704589973,
        -0.7139779505485648,
        -0.08766546915246139,
        0,
        6.938893903907228e-18,
        0.12186934340514759,
        -0.9925461516413217,
        0,
        0,
        -192.20577749963869,
        -264.54855716060786,
        1
      ],
      "name": "Clone 18",
      "children": [
        59
      ]
    },
    {
      "matrix": [
        0.9993848682953086,
        -2.4733595612423893e-17,
        -0.03506971659949441,
        0,
        -0.03506971659949437,
        1.6767905028698325e-16,
        -0.9993848682953087,
        0,
        2.1871208377741604e-17,
        1.0000000000000002,
        5.5511151231257815e-17,
        0,
        1.440514374451141e-14,
        -2.9999999999999996,
        100.17648459079173,
        1
      ],
      "name": "Rectangle",
      "mesh": 21
    },
    {
      "matrix": [
        1,
        0,
        0,
        0,
        0,
        1,
        0,
        0,
        0,
        0,
        1,
        0,
        -64.99477100121244,
        -144.05898951414287,
        -190.96,
        1
      ],
      "name": "group",
      "children": [
        61
      ]
    },
    {
      "matrix": [
        0.7193398003386512,
        -0.6920149856363047,
        0.060543466233231306,
        0,
        -0.6946583704589973,
        -0.7166024952237393,
        0.06269459458646676,
        0,
        6.938893903907228e-18,
        -0.08715574274765747,
        -0.9961946980917458,
        0,
        0,
        -243.00835793110784,
        -218.8057082793467,
        1
      ],
      "name": "Clone 19",
      "children": [
        62
      ]
    },
    {
      "matrix": [
        0.9993848682953086,
        -2.4733595612423893e-17,
        -0.03506971659949441,
        0,
        -0.03506971659949437,
        1.6767905028698325e-16,
        -0.9993848682953087,
        0,
        2.1871208377741604e-17,
        1.0000000000000002,
        5.5511151231257815e-17,
        0,
        1.440514374451141e-14,
        -2.9999999999999996,
        100.17648459079173,
        1
      ],
      "name": "Rectangle",
      "mesh": 22
    },
    {
      "matrix": [
        1,
        0,
        0,
        0,
        0,
        1,
        0,
        0,
        0,
        0,
        1,
        0,
        -64.99477100121244,
        -144.05898951414287,
        -190.96,
        1
      ],
      "name": "group",
      "children": [
        64
      ]
    },
    {
      "matrix": [
        0.7193398003386511,
        -0.6643051034394716,
        0.20309845197101453,
        0,
        -0.6946583704589973,
        -0.6879080722173527,
        0.21031460369992366,
        0,
        0,
        -0.2923717047227355,
        -0.956304755963036,
        0,
        0,
        -283.19030703751133,
        -163.5000000000001,
        1
      ],
      "name": "Clone 20",
      "children": [
        65
      ]
    },
    {
      "matrix": [
        0.9993848682953086,
        -2.4733595612423893e-17,
        -0.03506971659949441,
        0,
        -0.03506971659949437,
        1.6767905028698325e-16,
        -0.9993848682953087,
        0,
        2.1871208377741604e-17,
        1.0000000000000002,
        5.5511151231257815e-17,
        0,
        1.440514374451141e-14,
        -2.9999999999999996,
        100.17648459079173,
        1
      ],
      "name": "Rectangle",
      "mesh": 23
    },
    {
      "matrix": [
        1,
        0,
        0,
        0,
        0,
        1,
        0,
        0,
        0,
        0,
        1,
        0,
        -64.99477100121244,
        -144.05898951414287,
        -190.96,
        1
      ],
      "name": "group",
      "children": [
        67
      ]
    },
    {
      "matrix": [
        0.7193398003386512,
        -0.607561900532778,
        0.33677706078316566,
        0,
        -0.6946583704589971,
        -0.6291487655059023,
        0.3487428554302573,
        0,
        0,
        -0.4848096202463369,
        -0.8746197071393955,
        0,
        0,
        -310.99548082851516,
        -101.04855716060786,
        1
      ],
      "name": "Clone 21",
      "children": [
        68
      ]
    },
    {
      "matrix": [
        0.9993848682953086,
        -2.4733595612423893e-17,
        -0.03506971659949441,
        0,
        -0.03506971659949437,
        1.6767905028698325e-16,
        -0.9993848682953087,
        0,
        2.1871208377741604e-17,
        1.0000000000000002,
        5.5511151231257815e-17,
        0,
        1.440514374451141e-14,
        -2.9999999999999996,
        100.17648459079173,
        1
      ],
      "name": "Rectangle",
      "mesh": 24
    },
    {
      "matrix": [
        1,
        0,
        0,
        0,
        0,
        1,
        0,
        0,
        0,
        0,
        1,
        0,
        -64.99477100121244,
        -144.05898951414287,
        -190.96,
        1
      ],
      "name": "group",
      "children": [
        70
      ]
    },
    {
      "matrix": [
        0.7193398003386512,
        -0.5242653271673458,
        0.45573689600345646,
        0,
        -0.6946583704589971,
        -0.542892638751117,
        0.47192937092439946,
        0,
        -2.7755575615628914e-17,
        -0.6560590289905053,
        -0.7547095802227735,
        0,
        0,
        -325.2086597854253,
        -34.18080748852294,
        1
      ],
      "name": "Clone 22",
      "children": [
        71
      ]
    },
    {
      "matrix": [
        0.9993848682953086,
        -2.4733595612423893e-17,
        -0.03506971659949441,
        0,
        -0.03506971659949437,
        1.6767905028698325e-16,
        -0.9993848682953087,
        0,
        2.1871208377741604e-17,
        1.0000000000000002,
        5.5511151231257815e-17,
        0,
        1.440514374451141e-14,
        -2.9999999999999996,
        100.17648459079173,
        1
      ],
      "name": "Rectangle",
      "mesh": 25
    },
    {
      "matrix": [
        1,
        0,
        0,
        0,
        0,
        1,
        0,
        0,
        0,
        0,
        1,
        0,
        -64.99477100121244,
        -144.05898951414287,
        -190.96,
        1
      ],
      "name": "group",
      "children": [
        73
      ]
    },
    {
      "matrix": [
        0.7193398003386512,
        -0.41805584330054624,
        0.554778842000142,
        0,
        -0.6946583704589971,
        -0.4329094985949957,
        0.5744903083407759,
        0,
        -5.551115123125783e-17,
        -0.798635510047292,
        -0.6018150231520492,
        0,
        0,
        -325.20865978542537,
        34.18080748852252,
        1
      ],
      "name": "Clone 23",
      "children": [
        74
      ]
    },
    {
      "matrix": [
        0.9993848682953086,
        -2.4733595612423893e-17,
        -0.03506971659949441,
        0,
        -0.03506971659949437,
        1.6767905028698325e-16,
        -0.9993848682953087,
        0,
        2.1871208377741604e-17,
        1.0000000000000002,
        5.5511151231257815e-17,
        0,
        1.440514374451141e-14,
        -2.9999999999999996,
        100.17648459079173,
        1
      ],
      "name": "Rectangle",
      "mesh": 26
    },
    {
      "matrix": [
        1,
        0,
        0,
        0,
        0,
        1,
        0,
        0,
        0,
        0,
        1,
        0,
        -64.99477100121244,
        -144.05898951414287,
        -190.96,
        1
      ],
      "name": "group",
      "children": [
        76
      ]
    },
    {
      "matrix": [
        0.7193398003386512,
        -0.29357531302700834,
        0.6295742904771792,
        0,
        -0.6946583704589973,
        -0.3040061360200226,
        0.6519432625723086,
        0,
        0,
        -0.9063077870366499,
        -0.4226182617406995,
        0,
        0,
        -310.99548082851527,
        101.04855716060773,
        1
      ],
      "name": "Clone 24",
      "children": [
        77
      ]
    },
    {
      "matrix": [
        0.9993848682953086,
        -2.4733595612423893e-17,
        -0.03506971659949441,
        0,
        -0.03506971659949437,
        1.6767905028698325e-16,
        -0.9993848682953087,
        0,
        2.1871208377741604e-17,
        1.0000000000000002,
        5.5511151231257815e-17,
        0,
        1.440514374451141e-14,
        -2.9999999999999996,
        100.17648459079173,
        1
      ],
      "name": "Rectangle",
      "mesh": 27
    },
    {
      "matrix": [
        1,
        0,
        0,
        0,
        0,
        1,
        0,
        0,
        0,
        0,
        1,
        0,
        -64.99477100121244,
        -144.05898951414287,
        -190.96,
        1
      ],
      "name": "group",
      "children": [
        79
      ]
    },
    {
      "matrix": [
        0.7193398003386511,
        -0.15626413284354196,
        0.6768543214277393,
        0,
        -0.6946583704589973,
        -0.16181624651768423,
        0.7009031678585699,
        0,
        0,
        -0.9743700647852355,
        -0.22495105434386398,
        0,
        0,
        -283.19030703751156,
        163.49999999999977,
        1
      ],
      "name": "Clone 25",
      "children": [
        80
      ]
    },
    {
      "matrix": [
        0.9993848682953086,
        -2.4733595612423893e-17,
        -0.03506971659949441,
        0,
        -0.03506971659949437,
        1.6767905028698325e-16,
        -0.9993848682953087,
        0,
        2.1871208377741604e-17,
        1.0000000000000002,
        5.5511151231257815e-17,
        0,
        1.440514374451141e-14,
        -2.9999999999999996,
        100.17648459079173,
        1
      ],
      "name": "Rectangle",
      "mesh": 28
    },
    {
      "matrix": [
        1,
        0,
        0,
        0,
        0,
        1,
        0,
        0,
        0,
        0,
        1,
        0,
        -64.99477100121244,
        -144.05898951414287,
        -190.96,
        1
      ],
      "name": "group",
      "children": [
        82
      ]
    },
    {
      "matrix": [
        0.7193398003386512,
        -0.012123460216312276,
        0.694552570624523,
        0,
        -0.6946583704589973,
        -0.012554210562025325,
        0.7192302414028591,
        0,
        5.551115123125783e-17,
        -0.9998476951563913,
        -0.01745240643728474,
        0,
        0,
        -243.00835793110804,
        218.8057082793465,
        1
      ],
      "name": "Clone 26",
      "children": [
        83
      ]
    },
    {
      "matrix": [
        0.9993848682953086,
        -2.4733595612423893e-17,
        -0.03506971659949441,
        0,
        -0.03506971659949437,
        1.6767905028698325e-16,
        -0.9993848682953087,
        0,
        2.1871208377741604e-17,
        1.0000000000000002,
        5.5511151231257815e-17,
        0,
        1.440514374451141e-14,
        -2.9999999999999996,
        100.17648459079173,
        1
      ],
      "name": "Rectangle",
      "mesh": 29
    },
    {
      "matrix": [
        1,
        0,
        0,
        0,
        0,
        1,
        0,
        0,
        0,
        0,
        1,
        0,
        -64.99477100121244,
        -144.05898951414287,
        -190.96,
        1
      ],
      "name": "group",
      "children": [
        85
      ]
    },
    {
      "matrix": [
        0.7193398003386511,
        0.13254706579718878,
        0.6818955396520094,
        0,
        -0.6946583704589973,
        0.13725650463698214,
        0.7061235021482352,
        0,
        0,
        -0.9816271834476641,
        0.1908089953765445,
        0,
        0,
        -192.20577749963874,
        264.54855716060774,
        1
      ],
      "name": "Clone 27",
      "children": [
        86
      ]
    },
    {
      "matrix": [
        0.9993848682953086,
        -2.4733595612423893e-17,
        -0.03506971659949441,
        0,
        -0.03506971659949437,
        1.6767905028698325e-16,
        -0.9993848682953087,
        0,
        2.1871208377741604e-17,
        1.0000000000000002,
        5.5511151231257815e-17,
        0,
        1.440514374451141e-14,
        -2.9999999999999996,
        100.17648459079173,
        1
      ],
      "name": "Rectangle",
      "mesh": 30
    },
    {
      "matrix": [
        1,
        0,
        0,
        0,
        0,
        1,
        0,
        0,
        0,
        0,
        1,
        0,
        -64.99477100121244,
        -144.05898951414287,
        -190.96,
        1
      ],
      "name": "group",
      "children": [
        88
      ]
    },
    {
      "matrix": [
        0.7193398003386512,
        0.2714246490039623,
        0.639436401498871,
        0,
        -0.6946583704589973,
        0.2810684519535682,
        0.6621557774932386,
        0,
        0,
        -0.9205048534524415,
        0.3907311284892713,
        0,
        0,
        -133.0028822857869,
        298.7293646491304,
        1
      ],
      "name": "Clone 28",
      "children": [
        89
      ]
    },
    {
      "matrix": [
        0.9993848682953086,
        -2.4733595612423893e-17,
        -0.03506971659949441,
        0,
        -0.03506971659949437,
        1.6767905028698325e-16,
        -0.9993848682953087,
        0,
        2.1871208377741604e-17,
        1.0000000000000002,
        5.5511151231257815e-17,
        0,
        1.440514374451141e-14,
        -2.9999999999999996,
        100.17648459079173,
        1
      ],
      "name": "Rectangle",
      "mesh": 31
    },
    {
      "matrix": [
        1,
        0,
        0,
        0,
        0,
        1,
        0,
        0,
        0,
        0,
        1,
        0,
        -64.99477100121244,
        -144.05898951414287,
        -190.96,
        1
      ],
      "name": "group",
      "children": [
        91
      ]
    },
    {
      "matrix": [
        0.7193398003386512,
        0.39843967260929564,
        0.5690308242439479,
        0,
        -0.6946583704589973,
        0.41259635920371585,
        0.5892486679858419,
        0,
        0,
        -0.8191520442889925,
        0.5735764363510449,
        0,
        0,
        -67.98712289740747,
        319.85426543995436,
        1
      ],
      "name": "Clone 29",
      "children": [
        92
      ]
    },
    {
      "name": "Group Clones",
      "children": [
        6,
        9,
        12,
        15,
        18,
        21,
        24,
        27,
        30,
        33,
        36,
        39,
        42,
        45,
        48,
        51,
        54,
        57,
        60,
        63,
        66,
        69,
        72,
        75,
        78,
        81,
        84,
        87,
        90,
        93
      ]
    },
    {
      "matrix": [
        0.11274308004687462,
        -0.3563275969734715,
        -0.9275341727055965,
        0,
        -0.9534145789774628,
        -0.3016631243510337,
        0,
        0,
        -0.2798028564807215,
        0.8843246027573156,
        -0.3737383556224123,
        0,
        0,
        0,
        0,
        1
      ],
      "name": "Directional Light 2",
      "extensions": {
        "KHR_lights_punctual": {
          "light": 1
        }
      }
    },
    {
      "matrix": [
        0.20293019058583842,
        -0.6413664336184233,
        -0.7399110997791424,
        0,
        -0.9534145789774628,
        -0.3016631243510337,
        0,
        0,
        -0.22320389410138552,
        0.7054420296766826,
        -0.6727046635958607,
        0,
        0,
        0,
        0,
        1
      ],
      "name": "Directional Light",
      "extensions": {
        "KHR_lights_punctual": {
          "light": 2
        }
      }
    },
    {
      "matrix": [
        2.220446049250313e-16,
        0,
        -1,
        0,
        -6.394884621840902e-17,
        1,
        -1.232595164407831e-32,
        0,
        1,
        6.394884621840902e-17,
        2.220446049250313e-16,
        0,
        1242.426275959339,
        45.08200648297556,
        -24.07780753953582,
        1
      ],
      "camera": 0
    },
    {
      "matrix": [
        1,
        0,
        0,
        0,
        0,
        1,
        0,
        0,
        0,
        0,
        1,
        0,
        0,
        1,
        0,
        1
      ],
      "name": "Default Ambient Light"
    },
    {
      "name": "Scene 1",
      "children": [
        3,
        94,
        95,
        96,
        97,
        98
      ]
    }
  ],
  "bufferViews": [
    {
      "buffer": 0,
      "byteOffset": 0,
      "byteLength": 50700,
      "target": 34962,
      "byteStride": 12
    },
    {
      "buffer": 0,
      "byteOffset": 50700,
      "byteLength": 50700,
      "target": 34962,
      "byteStride": 12
    },
    {
      "buffer": 0,
      "byteOffset": 101400,
      "byteLength": 33800,
      "target": 34962,
      "byteStride": 8
    },
    {
      "buffer": 0,
      "byteOffset": 135200,
      "byteLength": 48384,
      "target": 34963
    },
    {
      "buffer": 0,
      "byteOffset": 183584,
      "byteLength": 768,
      "target": 34962,
      "byteStride": 12
    },
    {
      "buffer": 0,
      "byteOffset": 184352,
      "byteLength": 768,
      "target": 34962,
      "byteStride": 12
    },
    {
      "buffer": 0,
      "byteOffset": 185120,
      "byteLength": 512,
      "target": 34962,
      "byteStride": 8
    },
    {
      "buffer": 0,
      "byteOffset": 185632,
      "byteLength": 744,
      "target": 34963
    },
    {
      "buffer": 0,
      "byteOffset": 186376,
      "byteLength": 19872,
      "target": 34962,
      "byteStride": 12
    },
    {
      "buffer": 0,
      "byteOffset": 206248,
      "byteLength": 19872,
      "target": 34962,
      "byteStride": 12
    },
    {
      "buffer": 0,
      "byteOffset": 226120,
      "byteLength": 13248,
      "target": 34962,
      "byteStride": 8
    },
    {
      "buffer": 0,
      "byteOffset": 239368,
      "byteLength": 31440,
      "target": 34963
    }
  ],
  "buffers": [
    {
      "byteLength": 270808,
      "uri": "data:application/octet-stream;base64,"
    }
  ],
  "accessors": [
    {
      "bufferView": 0,
      "componentType": 5126,
      "count": 4225,
      "max": [
        9,
        9,
        9
      ],
      "min": [
        -9,
        -9,
        -9
      ],
      "type": "VEC3"
    },
    {
      "bufferView": 1,
      "componentType": 5126,
      "count": 4225,
      "max": [
        1,
        1,
        1
      ],
      "min": [
        -1,
        -1,
        -1
      ],
      "type": "VEC3"
    },
    {
      "bufferView": 2,
      "componentType": 5126,
      "count": 4225,
      "max": [
        1.0078125,
        1
      ],
      "min": [
        -0.0078125,
        0
      ],
      "type": "VEC2"
    },
    {
      "bufferView": 3,
      "componentType": 5123,
      "count": 24192,
      "max": [
        4224
      ],
      "min": [
        0
      ],
      "type": "SCALAR"
    },
    {
      "bufferView": 4,
      "componentType": 5126,
      "count": 64,
      "max": [
        30,
        30,
        0
      ],
      "min": [
        -30,
        -30,
        0
      ],
      "type": "VEC3"
    },
    {
      "bufferView": 5,
      "componentType": 5126,
      "count": 64,
      "max": [
        0,
        0,
        1
      ],
      "min": [
        0,
        0,
        1
      ],
      "type": "VEC3"
    },
    {
      "bufferView": 6,
      "componentType": 5126,
      "count": 64,
      "max": [
        1,
        1
      ],
      "min": [
        0,
        0
      ],
      "type": "VEC2"
    },
    {
      "bufferView": 7,
      "componentType": 5125,
      "count": 186,
      "max": [
        63
      ],
      "min": [
        0
      ],
      "type": "SCALAR"
    },
    {
      "bufferView": 8,
      "componentType": 5126,
      "count": 1656,
      "max": [
        50,
        101.5,
        6
      ],
      "min": [
        -50,
        -101.5,
        0
      ],
      "type": "VEC3"
    },
    {
      "bufferView": 9,
      "componentType": 5126,
      "count": 1656,
      "max": [
        1,
        1,
        1
      ],
      "min": [
        -1,
        -1,
        -1
      ],
      "type": "VEC3"
    },
    {
      "bufferView": 10,
      "componentType": 5126,
      "count": 1656,
      "max": [
        1,
        1
      ],
      "min": [
        0,
        0
      ],
      "type": "VEC2"
    },
    {
      "bufferView": 11,
      "componentType": 5125,
      "count": 7860,
      "max": [
        1655
      ],
      "min": [
        0
      ],
      "type": "SCALAR"
    }
  ],
  "meshes": [
    {
      "primitives": [
        {
          "mode": 4,
          "attributes": {
            "POSITION": 0,
            "NORMAL": 1,
            "TEXCOORD_0": 2
          },
          "extras": {
            "parameters": {
              "width": 18,
              "widthSegments": 64,
              "heightSegments": 64,
              "phiStart": 0,
              "phiLength": 6.283185307179586,
              "thetaStart": 0,
              "thetaLength": 180,
              "height": 18,
              "depth": 18,
              "type": "SphereGeometry"
            },
            "type": "SphereGeometry"
          },
          "indices": 3
        }
      ]
    },
    {
      "primitives": [
        {
          "mode": 4,
          "attributes": {
            "POSITION": 4,
            "NORMAL": 5,
            "TEXCOORD_0": 6
          },
          "extras": {
            "shape": {
              "points": [
                -30,
                0,
                -30,
                -16.568542494,
                -30,
                16.568542494,
                0,
                0,
                30,
                -16.568542494,
                30,
                16.568542494,
                30,
                0,
                30,
                0,
                30,
                16.568542494,
                30,
                -16.568542494,
                0,
                0,
                -30,
                16.568542494,
                -30,
                -16.568542494,
                -30,
                0
              ],
              "shapeHoles": [],
              "isClosed": true,
              "roundness": 0
            },
            "parameters": {
              "width": 60,
              "depth": 0,
              "spikes": 64,
              "angle": 360,
              "innerRadius": 0,
              "extrudeBevelSize": 0,
              "extrudeBevelSegments": 1,
              "height": 60,
              "type": "EllipseGeometry"
            },
            "type": "EllipseGeometry"
          },
          "indices": 7
        }
      ]
    },
    {
      "primitives": [
        {
          "mode": 4,
          "attributes": {
            "POSITION": 8,
            "NORMAL": 9,
            "TEXCOORD_0": 10
          },
          "extras": {
            "shape": {
              "points": [
                -50,
                101.5,
                -50,
                101.5,
                -50,
                101.5,
                50,
                50,
                101.5,
                50,
                101.5,
                50,
                101.5,
                50,
                50,
                -101.5,
                50,
                -101.5,
                50,
                -101.5,
                50,
                -50,
                -101.5,
                -50,
                -101.5,
                -50,
                -101.5,
                50
              ],
              "shapeHoles": [],
              "isClosed": true,
              "roundness": 50
            },
            "parameters": {
              "width": 100,
              "depth": 6,
              "cornerRadius": [
                100,
                100,
                100,
                100
              ],
              "cornerType": 0,
              "extrudeBevelSize": 1,
              "extrudeBevelSegments": 3,
              "height": 203,
              "type": "RectangleGeometry"
            },
            "ui": {
              "enabledIndieCorners": false
            },
            "type": "RectangleGeometry"
          },
          "indices": 11
        }
      ]
    },
    {
      "primitives": [
        {
          "mode": 4,
          "attributes": {
            "POSITION": 8,
            "NORMAL": 9,
            "TEXCOORD_0": 10
          },
          "extras": {
            "shape": {
              "points": [
                -50,
                101.5,
                -50,
                101.5,
                -50,
                101.5,
                50,
                50,
                101.5,
                50,
                101.5,
                50,
                101.5,
                50,
                50,
                -101.5,
                50,
                -101.5,
                50,
                -101.5,
                50,
                -50,
                -101.5,
                -50,
                -101.5,
                -50,
                -101.5,
                50
              ],
              "shapeHoles": [],
              "isClosed": true,
              "roundness": 50
            },
            "parameters": {
              "width": 100,
              "depth": 6,
              "cornerRadius": [
                100,
                100,
                100,
                100
              ],
              "cornerType": 0,
              "extrudeBevelSize": 1,
              "extrudeBevelSegments": 3,
              "height": 203,
              "type": "RectangleGeometry"
            },
            "ui": {
              "enabledIndieCorners": false
            },
            "type": "RectangleGeometry"
          },
          "indices": 11
        }
      ]
    },
    {
      "primitives": [
        {
          "mode": 4,
          "attributes": {
            "POSITION": 8,
            "NORMAL": 9,
            "TEXCOORD_0": 10
          },
          "extras": {
            "shape": {
              "points": [
                -50,
                101.5,
                -50,
                101.5,
                -50,
                101.5,
                50,
                50,
                101.5,
                50,
                101.5,
                50,
                101.5,
                50,
                50,
                -101.5,
                50,
                -101.5,
                50,
                -101.5,
                50,
                -50,
                -101.5,
                -50,
                -101.5,
                -50,
                -101.5,
                50
              ],
              "shapeHoles": [],
              "isClosed": true,
              "roundness": 50
            },
            "parameters": {
              "width": 100,
              "depth": 6,
              "cornerRadius": [
                100,
                100,
                100,
                100
              ],
              "cornerType": 0,
              "extrudeBevelSize": 1,
              "extrudeBevelSegments": 3,
              "height": 203,
              "type": "RectangleGeometry"
            },
            "ui": {
              "enabledIndieCorners": false
            },
            "type": "RectangleGeometry"
          },
          "indices": 11
        }
      ]
    },
    {
      "primitives": [
        {
          "mode": 4,
          "attributes": {
            "POSITION": 8,
            "NORMAL": 9,
            "TEXCOORD_0": 10
          },
          "extras": {
            "shape": {
              "points": [
                -50,
                101.5,
                -50,
                101.5,
                -50,
                101.5,
                50,
                50,
                101.5,
                50,
                101.5,
                50,
                101.5,
                50,
                50,
                -101.5,
                50,
                -101.5,
                50,
                -101.5,
                50,
                -50,
                -101.5,
                -50,
                -101.5,
                -50,
                -101.5,
                50
              ],
              "shapeHoles": [],
              "isClosed": true,
              "roundness": 50
            },
            "parameters": {
              "width": 100,
              "depth": 6,
              "cornerRadius": [
                100,
                100,
                100,
                100
              ],
              "cornerType": 0,
              "extrudeBevelSize": 1,
              "extrudeBevelSegments": 3,
              "height": 203,
              "type": "RectangleGeometry"
            },
            "ui": {
              "enabledIndieCorners": false
            },
            "type": "RectangleGeometry"
          },
          "indices": 11
        }
      ]
    },
    {
      "primitives": [
        {
          "mode": 4,
          "attributes": {
            "POSITION": 8,
            "NORMAL": 9,
            "TEXCOORD_0": 10
          },
          "extras": {
            "shape": {
              "points": [
                -50,
                101.5,
                -50,
                101.5,
                -50,
                101.5,
                50,
                50,
                101.5,
                50,
                101.5,
                50,
                101.5,
                50,
                50,
                -101.5,
                50,
                -101.5,
                50,
                -101.5,
                50,
                -50,
                -101.5,
                -50,
                -101.5,
                -50,
                -101.5,
                50
              ],
              "shapeHoles": [],
              "isClosed": true,
              "roundness": 50
            },
            "parameters": {
              "width": 100,
              "depth": 6,
              "cornerRadius": [
                100,
                100,
                100,
                100
              ],
              "cornerType": 0,
              "extrudeBevelSize": 1,
              "extrudeBevelSegments": 3,
              "height": 203,
              "type": "RectangleGeometry"
            },
            "ui": {
              "enabledIndieCorners": false
            },
            "type": "RectangleGeometry"
          },
          "indices": 11
        }
      ]
    },
    {
      "primitives": [
        {
          "mode": 4,
          "attributes": {
            "POSITION": 8,
            "NORMAL": 9,
            "TEXCOORD_0": 10
          },
          "extras": {
            "shape": {
              "points": [
                -50,
                101.5,
                -50,
                101.5,
                -50,
                101.5,
                50,
                50,
                101.5,
                50,
                101.5,
                50,
                101.5,
                50,
                50,
                -101.5,
                50,
                -101.5,
                50,
                -101.5,
                50,
                -50,
                -101.5,
                -50,
                -101.5,
                -50,
                -101.5,
                50
              ],
              "shapeHoles": [],
              "isClosed": true,
              "roundness": 50
            },
            "parameters": {
              "width": 100,
              "depth": 6,
              "cornerRadius": [
                100,
                100,
                100,
                100
              ],
              "cornerType": 0,
              "extrudeBevelSize": 1,
              "extrudeBevelSegments": 3,
              "height": 203,
              "type": "RectangleGeometry"
            },
            "ui": {
              "enabledIndieCorners": false
            },
            "type": "RectangleGeometry"
          },
          "indices": 11
        }
      ]
    },
    {
      "primitives": [
        {
          "mode": 4,
          "attributes": {
            "POSITION": 8,
            "NORMAL": 9,
            "TEXCOORD_0": 10
          },
          "extras": {
            "shape": {
              "points": [
                -50,
                101.5,
                -50,
                101.5,
                -50,
                101.5,
                50,
                50,
                101.5,
                50,
                101.5,
                50,
                101.5,
                50,
                50,
                -101.5,
                50,
                -101.5,
                50,
                -101.5,
                50,
                -50,
                -101.5,
                -50,
                -101.5,
                -50,
                -101.5,
                50
              ],
              "shapeHoles": [],
              "isClosed": true,
              "roundness": 50
            },
            "parameters": {
              "width": 100,
              "depth": 6,
              "cornerRadius": [
                100,
                100,
                100,
                100
              ],
              "cornerType": 0,
              "extrudeBevelSize": 1,
              "extrudeBevelSegments": 3,
              "height": 203,
              "type": "RectangleGeometry"
            },
            "ui": {
              "enabledIndieCorners": false
            },
            "type": "RectangleGeometry"
          },
          "indices": 11
        }
      ]
    },
    {
      "primitives": [
        {
          "mode": 4,
          "attributes": {
            "POSITION": 8,
            "NORMAL": 9,
            "TEXCOORD_0": 10
          },
          "extras": {
            "shape": {
              "points": [
                -50,
                101.5,
                -50,
                101.5,
                -50,
                101.5,
                50,
                50,
                101.5,
                50,
                101.5,
                50,
                101.5,
                50,
                50,
                -101.5,
                50,
                -101.5,
                50,
                -101.5,
                50,
                -50,
                -101.5,
                -50,
                -101.5,
                -50,
                -101.5,
                50
              ],
              "shapeHoles": [],
              "isClosed": true,
              "roundness": 50
            },
            "parameters": {
              "width": 100,
              "depth": 6,
              "cornerRadius": [
                100,
                100,
                100,
                100
              ],
              "cornerType": 0,
              "extrudeBevelSize": 1,
              "extrudeBevelSegments": 3,
              "height": 203,
              "type": "RectangleGeometry"
            },
            "ui": {
              "enabledIndieCorners": false
            },
            "type": "RectangleGeometry"
          },
          "indices": 11
        }
      ]
    },
    {
      "primitives": [
        {
          "mode": 4,
          "attributes": {
            "POSITION": 8,
            "NORMAL": 9,
            "TEXCOORD_0": 10
          },
          "extras": {
            "shape": {
              "points": [
                -50,
                101.5,
                -50,
                101.5,
                -50,
                101.5,
                50,
                50,
                101.5,
                50,
                101.5,
                50,
                101.5,
                50,
                50,
                -101.5,
                50,
                -101.5,
                50,
                -101.5,
                50,
                -50,
                -101.5,
                -50,
                -101.5,
                -50,
                -101.5,
                50
              ],
              "shapeHoles": [],
              "isClosed": true,
              "roundness": 50
            },
            "parameters": {
              "width": 100,
              "depth": 6,
              "cornerRadius": [
                100,
                100,
                100,
                100
              ],
              "cornerType": 0,
              "extrudeBevelSize": 1,
              "extrudeBevelSegments": 3,
              "height": 203,
              "type": "RectangleGeometry"
            },
            "ui": {
              "enabledIndieCorners": false
            },
            "type": "RectangleGeometry"
          },
          "indices": 11
        }
      ]
    },
    {
      "primitives": [
        {
          "mode": 4,
          "attributes": {
            "POSITION": 8,
            "NORMAL": 9,
            "TEXCOORD_0": 10
          },
          "extras": {
            "shape": {
              "points": [
                -50,
                101.5,
                -50,
                101.5,
                -50,
                101.5,
                50,
                50,
                101.5,
                50,
                101.5,
                50,
                101.5,
                50,
                50,
                -101.5,
                50,
                -101.5,
                50,
                -101.5,
                50,
                -50,
                -101.5,
                -50,
                -101.5,
                -50,
                -101.5,
                50
              ],
              "shapeHoles": [],
              "isClosed": true,
              "roundness": 50
            },
            "parameters": {
              "width": 100,
              "depth": 6,
              "cornerRadius": [
                100,
                100,
                100,
                100
              ],
              "cornerType": 0,
              "extrudeBevelSize": 1,
              "extrudeBevelSegments": 3,
              "height": 203,
              "type": "RectangleGeometry"
            },
            "ui": {
              "enabledIndieCorners": false
            },
            "type": "RectangleGeometry"
          },
          "indices": 11
        }
      ]
    },
    {
      "primitives": [
        {
          "mode": 4,
          "attributes": {
            "POSITION": 8,
            "NORMAL": 9,
            "TEXCOORD_0": 10
          },
          "extras": {
            "shape": {
              "points": [
                -50,
                101.5,
                -50,
                101.5,
                -50,
                101.5,
                50,
                50,
                101.5,
                50,
                101.5,
                50,
                101.5,
                50,
                50,
                -101.5,
                50,
                -101.5,
                50,
                -101.5,
                50,
                -50,
                -101.5,
                -50,
                -101.5,
                -50,
                -101.5,
                50
              ],
              "shapeHoles": [],
              "isClosed": true,
              "roundness": 50
            },
            "parameters": {
              "width": 100,
              "depth": 6,
              "cornerRadius": [
                100,
                100,
                100,
                100
              ],
              "cornerType": 0,
              "extrudeBevelSize": 1,
              "extrudeBevelSegments": 3,
              "height": 203,
              "type": "RectangleGeometry"
            },
            "ui": {
              "enabledIndieCorners": false
            },
            "type": "RectangleGeometry"
          },
          "indices": 11
        }
      ]
    },
    {
      "primitives": [
        {
          "mode": 4,
          "attributes": {
            "POSITION": 8,
            "NORMAL": 9,
            "TEXCOORD_0": 10
          },
          "extras": {
            "shape": {
              "points": [
                -50,
                101.5,
                -50,
                101.5,
                -50,
                101.5,
                50,
                50,
                101.5,
                50,
                101.5,
                50,
                101.5,
                50,
                50,
                -101.5,
                50,
                -101.5,
                50,
                -101.5,
                50,
                -50,
                -101.5,
                -50,
                -101.5,
                -50,
                -101.5,
                50
              ],
              "shapeHoles": [],
              "isClosed": true,
              "roundness": 50
            },
            "parameters": {
              "width": 100,
              "depth": 6,
              "cornerRadius": [
                100,
                100,
                100,
                100
              ],
              "cornerType": 0,
              "extrudeBevelSize": 1,
              "extrudeBevelSegments": 3,
              "height": 203,
              "type": "RectangleGeometry"
            },
            "ui": {
              "enabledIndieCorners": false
            },
            "type": "RectangleGeometry"
          },
          "indices": 11
        }
      ]
    },
    {
      "primitives": [
        {
          "mode": 4,
          "attributes": {
            "POSITION": 8,
            "NORMAL": 9,
            "TEXCOORD_0": 10
          },
          "extras": {
            "shape": {
              "points": [
                -50,
                101.5,
                -50,
                101.5,
                -50,
                101.5,
                50,
                50,
                101.5,
                50,
                101.5,
                50,
                101.5,
                50,
                50,
                -101.5,
                50,
                -101.5,
                50,
                -101.5,
                50,
                -50,
                -101.5,
                -50,
                -101.5,
                -50,
                -101.5,
                50
              ],
              "shapeHoles": [],
              "isClosed": true,
              "roundness": 50
            },
            "parameters": {
              "width": 100,
              "depth": 6,
              "cornerRadius": [
                100,
                100,
                100,
                100
              ],
              "cornerType": 0,
              "extrudeBevelSize": 1,
              "extrudeBevelSegments": 3,
              "height": 203,
              "type": "RectangleGeometry"
            },
            "ui": {
              "enabledIndieCorners": false
            },
            "type": "RectangleGeometry"
          },
          "indices": 11
        }
      ]
    },
    {
      "primitives": [
        {
          "mode": 4,
          "attributes": {
            "POSITION": 8,
            "NORMAL": 9,
            "TEXCOORD_0": 10
          },
          "extras": {
            "shape": {
              "points": [
                -50,
                101.5,
                -50,
                101.5,
                -50,
                101.5,
                50,
                50,
                101.5,
                50,
                101.5,
                50,
                101.5,
                50,
                50,
                -101.5,
                50,
                -101.5,
                50,
                -101.5,
                50,
                -50,
                -101.5,
                -50,
                -101.5,
                -50,
                -101.5,
                50
              ],
              "shapeHoles": [],
              "isClosed": true,
              "roundness": 50
            },
            "parameters": {
              "width": 100,
              "depth": 6,
              "cornerRadius": [
                100,
                100,
                100,
                100
              ],
              "cornerType": 0,
              "extrudeBevelSize": 1,
              "extrudeBevelSegments": 3,
              "height": 203,
              "type": "RectangleGeometry"
            },
            "ui": {
              "enabledIndieCorners": false
            },
            "type": "RectangleGeometry"
          },
          "indices": 11
        }
      ]
    },
    {
      "primitives": [
        {
          "mode": 4,
          "attributes": {
            "POSITION": 8,
            "NORMAL": 9,
            "TEXCOORD_0": 10
          },
          "extras": {
            "shape": {
              "points": [
                -50,
                101.5,
                -50,
                101.5,
                -50,
                101.5,
                50,
                50,
                101.5,
                50,
                101.5,
                50,
                101.5,
                50,
                50,
                -101.5,
                50,
                -101.5,
                50,
                -101.5,
                50,
                -50,
                -101.5,
                -50,
                -101.5,
                -50,
                -101.5,
                50
              ],
              "shapeHoles": [],
              "isClosed": true,
              "roundness": 50
            },
            "parameters": {
              "width": 100,
              "depth": 6,
              "cornerRadius": [
                100,
                100,
                100,
                100
              ],
              "cornerType": 0,
              "extrudeBevelSize": 1,
              "extrudeBevelSegments": 3,
              "height": 203,
              "type": "RectangleGeometry"
            },
            "ui": {
              "enabledIndieCorners": false
            },
            "type": "RectangleGeometry"
          },
          "indices": 11
        }
      ]
    },
    {
      "primitives": [
        {
          "mode": 4,
          "attributes": {
            "POSITION": 8,
            "NORMAL": 9,
            "TEXCOORD_0": 10
          },
          "extras": {
            "shape": {
              "points": [
                -50,
                101.5,
                -50,
                101.5,
                -50,
                101.5,
                50,
                50,
                101.5,
                50,
                101.5,
                50,
                101.5,
                50,
                50,
                -101.5,
                50,
                -101.5,
                50,
                -101.5,
                50,
                -50,
                -101.5,
                -50,
                -101.5,
                -50,
                -101.5,
                50
              ],
              "shapeHoles": [],
              "isClosed": true,
              "roundness": 50
            },
            "parameters": {
              "width": 100,
              "depth": 6,
              "cornerRadius": [
                100,
                100,
                100,
                100
              ],
              "cornerType": 0,
              "extrudeBevelSize": 1,
              "extrudeBevelSegments": 3,
              "height": 203,
              "type": "RectangleGeometry"
            },
            "ui": {
              "enabledIndieCorners": false
            },
            "type": "RectangleGeometry"
          },
          "indices": 11
        }
      ]
    },
    {
      "primitives": [
        {
          "mode": 4,
          "attributes": {
            "POSITION": 8,
            "NORMAL": 9,
            "TEXCOORD_0": 10
          },
          "extras": {
            "shape": {
              "points": [
                -50,
                101.5,
                -50,
                101.5,
                -50,
                101.5,
                50,
                50,
                101.5,
                50,
                101.5,
                50,
                101.5,
                50,
                50,
                -101.5,
                50,
                -101.5,
                50,
                -101.5,
                50,
                -50,
                -101.5,
                -50,
                -101.5,
                -50,
                -101.5,
                50
              ],
              "shapeHoles": [],
              "isClosed": true,
              "roundness": 50
            },
            "parameters": {
              "width": 100,
              "depth": 6,
              "cornerRadius": [
                100,
                100,
                100,
                100
              ],
              "cornerType": 0,
              "extrudeBevelSize": 1,
              "extrudeBevelSegments": 3,
              "height": 203,
              "type": "RectangleGeometry"
            },
            "ui": {
              "enabledIndieCorners": false
            },
            "type": "RectangleGeometry"
          },
          "indices": 11
        }
      ]
    },
    {
      "primitives": [
        {
          "mode": 4,
          "attributes": {
            "POSITION": 8,
            "NORMAL": 9,
            "TEXCOORD_0": 10
          },
          "extras": {
            "shape": {
              "points": [
                -50,
                101.5,
                -50,
                101.5,
                -50,
                101.5,
                50,
                50,
                101.5,
                50,
                101.5,
                50,
                101.5,
                50,
                50,
                -101.5,
                50,
                -101.5,
                50,
                -101.5,
                50,
                -50,
                -101.5,
                -50,
                -101.5,
                -50,
                -101.5,
                50
              ],
              "shapeHoles": [],
              "isClosed": true,
              "roundness": 50
            },
            "parameters": {
              "width": 100,
              "depth": 6,
              "cornerRadius": [
                100,
                100,
                100,
                100
              ],
              "cornerType": 0,
              "extrudeBevelSize": 1,
              "extrudeBevelSegments": 3,
              "height": 203,
              "type": "RectangleGeometry"
            },
            "ui": {
              "enabledIndieCorners": false
            },
            "type": "RectangleGeometry"
          },
          "indices": 11
        }
      ]
    },
    {
      "primitives": [
        {
          "mode": 4,
          "attributes": {
            "POSITION": 8,
            "NORMAL": 9,
            "TEXCOORD_0": 10
          },
          "extras": {
            "shape": {
              "points": [
                -50,
                101.5,
                -50,
                101.5,
                -50,
                101.5,
                50,
                50,
                101.5,
                50,
                101.5,
                50,
                101.5,
                50,
                50,
                -101.5,
                50,
                -101.5,
                50,
                -101.5,
                50,
                -50,
                -101.5,
                -50,
                -101.5,
                -50,
                -101.5,
                50
              ],
              "shapeHoles": [],
              "isClosed": true,
              "roundness": 50
            },
            "parameters": {
              "width": 100,
              "depth": 6,
              "cornerRadius": [
                100,
                100,
                100,
                100
              ],
              "cornerType": 0,
              "extrudeBevelSize": 1,
              "extrudeBevelSegments": 3,
              "height": 203,
              "type": "RectangleGeometry"
            },
            "ui": {
              "enabledIndieCorners": false
            },
            "type": "RectangleGeometry"
          },
          "indices": 11
        }
      ]
    },
    {
      "primitives": [
        {
          "mode": 4,
          "attributes": {
            "POSITION": 8,
            "NORMAL": 9,
            "TEXCOORD_0": 10
          },
          "extras": {
            "shape": {
              "points": [
                -50,
                101.5,
                -50,
                101.5,
                -50,
                101.5,
                50,
                50,
                101.5,
                50,
                101.5,
                50,
                101.5,
                50,
                50,
                -101.5,
                50,
                -101.5,
                50,
                -101.5,
                50,
                -50,
                -101.5,
                -50,
                -101.5,
                -50,
                -101.5,
                50
              ],
              "shapeHoles": [],
              "isClosed": true,
              "roundness": 50
            },
            "parameters": {
              "width": 100,
              "depth": 6,
              "cornerRadius": [
                100,
                100,
                100,
                100
              ],
              "cornerType": 0,
              "extrudeBevelSize": 1,
              "extrudeBevelSegments": 3,
              "height": 203,
              "type": "RectangleGeometry"
            },
            "ui": {
              "enabledIndieCorners": false
            },
            "type": "RectangleGeometry"
          },
          "indices": 11
        }
      ]
    },
    {
      "primitives": [
        {
          "mode": 4,
          "attributes": {
            "POSITION": 8,
            "NORMAL": 9,
            "TEXCOORD_0": 10
          },
          "extras": {
            "shape": {
              "points": [
                -50,
                101.5,
                -50,
                101.5,
                -50,
                101.5,
                50,
                50,
                101.5,
                50,
                101.5,
                50,
                101.5,
                50,
                50,
                -101.5,
                50,
                -101.5,
                50,
                -101.5,
                50,
                -50,
                -101.5,
                -50,
                -101.5,
                -50,
                -101.5,
                50
              ],
              "shapeHoles": [],
              "isClosed": true,
              "roundness": 50
            },
            "parameters": {
              "width": 100,
              "depth": 6,
              "cornerRadius": [
                100,
                100,
                100,
                100
              ],
              "cornerType": 0,
              "extrudeBevelSize": 1,
              "extrudeBevelSegments": 3,
              "height": 203,
              "type": "RectangleGeometry"
            },
            "ui": {
              "enabledIndieCorners": false
            },
            "type": "RectangleGeometry"
          },
          "indices": 11
        }
      ]
    },
    {
      "primitives": [
        {
          "mode": 4,
          "attributes": {
            "POSITION": 8,
            "NORMAL": 9,
            "TEXCOORD_0": 10
          },
          "extras": {
            "shape": {
              "points": [
                -50,
                101.5,
                -50,
                101.5,
                -50,
                101.5,
                50,
                50,
                101.5,
                50,
                101.5,
                50,
                101.5,
                50,
                50,
                -101.5,
                50,
                -101.5,
                50,
                -101.5,
                50,
                -50,
                -101.5,
                -50,
                -101.5,
                -50,
                -101.5,
                50
              ],
              "shapeHoles": [],
              "isClosed": true,
              "roundness": 50
            },
            "parameters": {
              "width": 100,
              "depth": 6,
              "cornerRadius": [
                100,
                100,
                100,
                100
              ],
              "cornerType": 0,
              "extrudeBevelSize": 1,
              "extrudeBevelSegments": 3,
              "height": 203,
              "type": "RectangleGeometry"
            },
            "ui": {
              "enabledIndieCorners": false
            },
            "type": "RectangleGeometry"
          },
          "indices": 11
        }
      ]
    },
    {
      "primitives": [
        {
          "mode": 4,
          "attributes": {
            "POSITION": 8,
            "NORMAL": 9,
            "TEXCOORD_0": 10
          },
          "extras": {
            "shape": {
              "points": [
                -50,
                101.5,
                -50,
                101.5,
                -50,
                101.5,
                50,
                50,
                101.5,
                50,
                101.5,
                50,
                101.5,
                50,
                50,
                -101.5,
                50,
                -101.5,
                50,
                -101.5,
                50,
                -50,
                -101.5,
                -50,
                -101.5,
                -50,
                -101.5,
                50
              ],
              "shapeHoles": [],
              "isClosed": true,
              "roundness": 50
            },
            "parameters": {
              "width": 100,
              "depth": 6,
              "cornerRadius": [
                100,
                100,
                100,
                100
              ],
              "cornerType": 0,
              "extrudeBevelSize": 1,
              "extrudeBevelSegments": 3,
              "height": 203,
              "type": "RectangleGeometry"
            },
            "ui": {
              "enabledIndieCorners": false
            },
            "type": "RectangleGeometry"
          },
          "indices": 11
        }
      ]
    },
    {
      "primitives": [
        {
          "mode": 4,
          "attributes": {
            "POSITION": 8,
            "NORMAL": 9,
            "TEXCOORD_0": 10
          },
          "extras": {
            "shape": {
              "points": [
                -50,
                101.5,
                -50,
                101.5,
                -50,
                101.5,
                50,
                50,
                101.5,
                50,
                101.5,
                50,
                101.5,
                50,
                50,
                -101.5,
                50,
                -101.5,
                50,
                -101.5,
                50,
                -50,
                -101.5,
                -50,
                -101.5,
                -50,
                -101.5,
                50
              ],
              "shapeHoles": [],
              "isClosed": true,
              "roundness": 50
            },
            "parameters": {
              "width": 100,
              "depth": 6,
              "cornerRadius": [
                100,
                100,
                100,
                100
              ],
              "cornerType": 0,
              "extrudeBevelSize": 1,
              "extrudeBevelSegments": 3,
              "height": 203,
              "type": "RectangleGeometry"
            },
            "ui": {
              "enabledIndieCorners": false
            },
            "type": "RectangleGeometry"
          },
          "indices": 11
        }
      ]
    },
    {
      "primitives": [
        {
          "mode": 4,
          "attributes": {
            "POSITION": 8,
            "NORMAL": 9,
            "TEXCOORD_0": 10
          },
          "extras": {
            "shape": {
              "points": [
                -50,
                101.5,
                -50,
                101.5,
                -50,
                101.5,
                50,
                50,
                101.5,
                50,
                101.5,
                50,
                101.5,
                50,
                50,
                -101.5,
                50,
                -101.5,
                50,
                -101.5,
                50,
                -50,
                -101.5,
                -50,
                -101.5,
                -50,
                -101.5,
                50
              ],
              "shapeHoles": [],
              "isClosed": true,
              "roundness": 50
            },
            "parameters": {
              "width": 100,
              "depth": 6,
              "cornerRadius": [
                100,
                100,
                100,
                100
              ],
              "cornerType": 0,
              "extrudeBevelSize": 1,
              "extrudeBevelSegments": 3,
              "height": 203,
              "type": "RectangleGeometry"
            },
            "ui": {
              "enabledIndieCorners": false
            },
            "type": "RectangleGeometry"
          },
          "indices": 11
        }
      ]
    },
    {
      "primitives": [
        {
          "mode": 4,
          "attributes": {
            "POSITION": 8,
            "NORMAL": 9,
            "TEXCOORD_0": 10
          },
          "extras": {
            "shape": {
              "points": [
                -50,
                101.5,
                -50,
                101.5,
                -50,
                101.5,
                50,
                50,
                101.5,
                50,
                101.5,
                50,
                101.5,
                50,
                50,
                -101.5,
                50,
                -101.5,
                50,
                -101.5,
                50,
                -50,
                -101.5,
                -50,
                -101.5,
                -50,
                -101.5,
                50
              ],
              "shapeHoles": [],
              "isClosed": true,
              "roundness": 50
            },
            "parameters": {
              "width": 100,
              "depth": 6,
              "cornerRadius": [
                100,
                100,
                100,
                100
              ],
              "cornerType": 0,
              "extrudeBevelSize": 1,
              "extrudeBevelSegments": 3,
              "height": 203,
              "type": "RectangleGeometry"
            },
            "ui": {
              "enabledIndieCorners": false
            },
            "type": "RectangleGeometry"
          },
          "indices": 11
        }
      ]
    },
    {
      "primitives": [
        {
          "mode": 4,
          "attributes": {
            "POSITION": 8,
            "NORMAL": 9,
            "TEXCOORD_0": 10
          },
          "extras": {
            "shape": {
              "points": [
                -50,
                101.5,
                -50,
                101.5,
                -50,
                101.5,
                50,
                50,
                101.5,
                50,
                101.5,
                50,
                101.5,
                50,
                50,
                -101.5,
                50,
                -101.5,
                50,
                -101.5,
                50,
                -50,
                -101.5,
                -50,
                -101.5,
                -50,
                -101.5,
                50
              ],
              "shapeHoles": [],
              "isClosed": true,
              "roundness": 50
            },
            "parameters": {
              "width": 100,
              "depth": 6,
              "cornerRadius": [
                100,
                100,
                100,
                100
              ],
              "cornerType": 0,
              "extrudeBevelSize": 1,
              "extrudeBevelSegments": 3,
              "height": 203,
              "type": "RectangleGeometry"
            },
            "ui": {
              "enabledIndieCorners": false
            },
            "type": "RectangleGeometry"
          },
          "indices": 11
        }
      ]
    },
    {
      "primitives": [
        {
          "mode": 4,
          "attributes": {
            "POSITION": 8,
            "NORMAL": 9,
            "TEXCOORD_0": 10
          },
          "extras": {
            "shape": {
              "points": [
                -50,
                101.5,
                -50,
                101.5,
                -50,
                101.5,
                50,
                50,
                101.5,
                50,
                101.5,
                50,
                101.5,
                50,
                50,
                -101.5,
                50,
                -101.5,
                50,
                -101.5,
                50,
                -50,
                -101.5,
                -50,
                -101.5,
                -50,
                -101.5,
                50
              ],
              "shapeHoles": [],
              "isClosed": true,
              "roundness": 50
            },
            "parameters": {
              "width": 100,
              "depth": 6,
              "cornerRadius": [
                100,
                100,
                100,
                100
              ],
              "cornerType": 0,
              "extrudeBevelSize": 1,
              "extrudeBevelSegments": 3,
              "height": 203,
              "type": "RectangleGeometry"
            },
            "ui": {
              "enabledIndieCorners": false
            },
            "type": "RectangleGeometry"
          },
          "indices": 11
        }
      ]
    },
    {
      "primitives": [
        {
          "mode": 4,
          "attributes": {
            "POSITION": 8,
            "NORMAL": 9,
            "TEXCOORD_0": 10
          },
          "extras": {
            "shape": {
              "points": [
                -50,
                101.5,
                -50,
                101.5,
                -50,
                101.5,
                50,
                50,
                101.5,
                50,
                101.5,
                50,
                101.5,
                50,
                50,
                -101.5,
                50,
                -101.5,
                50,
                -101.5,
                50,
                -50,
                -101.5,
                -50,
                -101.5,
                -50,
                -101.5,
                50
              ],
              "shapeHoles": [],
              "isClosed": true,
              "roundness": 50
            },
            "parameters": {
              "width": 100,
              "depth": 6,
              "cornerRadius": [
                100,
                100,
                100,
                100
              ],
              "cornerType": 0,
              "extrudeBevelSize": 1,
              "extrudeBevelSegments": 3,
              "height": 203,
              "type": "RectangleGeometry"
            },
            "ui": {
              "enabledIndieCorners": false
            },
            "type": "RectangleGeometry"
          },
          "indices": 11
        }
      ]
    },
    {
      "primitives": [
        {
          "mode": 4,
          "attributes": {
            "POSITION": 8,
            "NORMAL": 9,
            "TEXCOORD_0": 10
          },
          "extras": {
            "shape": {
              "points": [
                -50,
                101.5,
                -50,
                101.5,
                -50,
                101.5,
                50,
                50,
                101.5,
                50,
                101.5,
                50,
                101.5,
                50,
                50,
                -101.5,
                50,
                -101.5,
                50,
                -101.5,
                50,
                -50,
                -101.5,
                -50,
                -101.5,
                -50,
                -101.5,
                50
              ],
              "shapeHoles": [],
              "isClosed": true,
              "roundness": 50
            },
            "parameters": {
              "width": 100,
              "depth": 6,
              "cornerRadius": [
                100,
                100,
                100,
                100
              ],
              "cornerType": 0,
              "extrudeBevelSize": 1,
              "extrudeBevelSegments": 3,
              "height": 203,
              "type": "RectangleGeometry"
            },
            "ui": {
              "enabledIndieCorners": false
            },
            "type": "RectangleGeometry"
          },
          "indices": 11
        }
      ]
    }
  ],
  "extensions": {
    "KHR_lights_punctual": {
      "lights": [
        {
          "name": "Point Light",
          "color": [
            1,
            1,
            1
          ],
          "intensity": 2.307,
          "type": "point",
          "range": 128
        },
        {
          "name": "Directional Light 2",
          "color": [
            1,
            1,
            1
          ],
          "intensity": 0.058,
          "type": "directional"
        },
        {
          "name": "Directional Light",
          "color": [
            1,
            1,
            1
          ],
          "intensity": 0.443,
          "type": "directional"
        }
      ]
    }
  },
  "cameras": [
    {
      "type": "orthographic",
      "orthographic": {
        "xmag": 6.255408,
        "ymag": 3.046253375,
        "zfar": 100000,
        "znear": 0
      }
    }
  ],
  "extensionsUsed": [
    "KHR_lights_punctual"
  ]
}